<svg width="16" height="14" viewBox="0 0 16 14" fill="none" xmlns="http://www.w3.org/2000/svg">
<path d="M15 8C15.5523 8 16 7.55229 16 7C16 6.44772 15.5523 6 15 6L15 8ZM1 6C0.447715 6 4.82823e-08 6.44772 0 7C-4.82823e-08 7.55228 0.447715 8 1 8L1 6ZM15 6L1 6L1 8L15 8L15 6Z" fill="#14181F"/>
<path d="M6.29289 13.7071C6.68342 14.0976 7.31658 14.0976 7.70711 13.7071C8.09763 13.3166 8.09763 12.6834 7.70711 12.2929L6.29289 13.7071ZM1 7L0.292893 6.29289C0.105357 6.48043 3.16163e-08 6.73478 0 7C-3.16163e-08 7.26522 0.105357 7.51957 0.292893 7.70711L1 7ZM7.70711 1.70711C8.09763 1.31658 8.09763 0.683418 7.70711 0.292893C7.31658 -0.097631 6.68342 -0.0976311 6.29289 0.292893L7.70711 1.70711ZM7.70711 12.2929L1.70711 6.29289L0.292893 7.70711L6.29289 13.7071L7.70711 12.2929ZM1.70711 7.70711L7.70711 1.70711L6.29289 0.292893L0.292893 6.29289L1.70711 7.70711Z" fill="#14181F"/>
</svg>
