<?xml version="1.0" encoding="UTF-8"?>
<svg width="29px" height="26px" viewBox="0 0 29 26" version="1.1" xmlns="http://www.w3.org/2000/svg" xmlns:xlink="http://www.w3.org/1999/xlink">
    <!-- Generator: Sketch 49.3 (51167) - http://www.bohemiancoding.com/sketch -->
    <title>Artboard 2 Copy 2</title>
    <desc>Created with Sketch.</desc>
    <defs></defs>
    <g id="Artboard-2-Copy-2" stroke="none" stroke-width="1" fill="none" fill-rule="evenodd">
        <g id="noun_1702997_cc" transform="translate(2.000000, 1.000000)" fill="#000000" fill-rule="nonzero">
            <g id="Group">
                <path d="M11.6666667,16.7671233 C11.6666667,16.569863 11.6666667,16.3068493 11.6666667,16.0767123 C11.6666667,11.3753425 11.6666667,6.6739726 11.6666667,1.93972603 C11.6666667,1.70958904 11.6666667,1.47945205 11.6666667,1.24931507 C11.7,0.690410959 12,0.295890411 12.5666667,0.295890411 C13.1666667,0.263013699 13.4666667,0.657534247 13.5333333,1.21643836 C13.5666667,1.47945205 13.5666667,1.70958904 13.5666667,1.97260274 C13.5666667,6.6739726 13.5666667,11.3753425 13.5666667,16.109589 C13.5666667,16.339726 13.5,16.6027397 13.6666667,16.9315068 C13.9333333,16.6356164 14.1666667,16.3726027 14.4333333,16.109589 C16.4,14.1369863 18.3666667,12.1972603 20.3333333,10.2575342 C20.4333333,10.1589041 20.5666667,10.0273973 20.7,9.96164384 C21.1333333,9.69863014 21.5,9.76438356 21.8333333,10.0931507 C22.1333333,10.4219178 22.2666667,10.8164384 21.9666667,11.2438356 C21.8333333,11.4410959 21.6666667,11.6054795 21.5,11.769863 C18.8,14.4657534 16.1,17.1287671 13.4,19.8246575 C12.8,20.4493151 12.3666667,20.4493151 11.7333333,19.7917808 C9,17.0630137 6.26666667,14.3342466 3.56666667,11.6054795 C3.5,11.5068493 3.4,11.4410959 3.33333333,11.3424658 C2.96666667,10.8821918 2.96666667,10.4219178 3.36666667,10.0273973 C3.76666667,9.63287671 4.23333333,9.66575342 4.63333333,9.99452055 C5.03333333,10.3561644 5.4,10.7506849 5.8,11.1123288 C7.73333333,13.0191781 9.7,14.8931507 11.6666667,16.7671233 Z" id="Shape"></path>
                <path d="M12.6333333,21.8630137 C15.6,21.8630137 18.5666667,21.8630137 21.5333333,21.8630137 C22.7666667,21.8630137 22.9333333,21.6986301 22.9666667,20.4493151 C22.9666667,19.430137 22.9666667,18.4109589 22.9666667,17.3917808 C22.9666667,17.1287671 22.9666667,16.8657534 23.0333333,16.6356164 C23.1333333,16.1424658 23.4333333,15.8465753 23.9666667,15.8794521 C24.4666667,15.8794521 24.8,16.1753425 24.8333333,16.6356164 C24.9666667,18.3780822 25.1,20.1205479 24.7333333,21.830137 C24.4666667,23.0794521 23.2,23.8356164 21.6,23.8356164 C19.4666667,23.8684932 17.3333333,23.8356164 15.1666667,23.8356164 C11.5,23.8356164 7.83333333,23.8356164 4.16666667,23.8356164 C3.7,23.8356164 3.23333333,23.8027397 2.76666667,23.7041096 C1.33333333,23.4739726 0.4,22.4876712 0.333333333,21.0410959 C0.266666667,19.660274 0.3,18.3123288 0.333333333,16.9315068 C0.333333333,16.2082192 0.733333333,15.8136986 1.33333333,15.8465753 C1.9,15.8794521 2.2,16.2410959 2.2,16.9643836 C2.2,18.1150685 2.2,19.2328767 2.2,20.3835616 C2.2,21.6657534 2.4,21.8630137 3.73333333,21.8630137 C6.73333333,21.8630137 9.7,21.8630137 12.6333333,21.8630137 Z" id="Shape"></path>
            </g>
        </g>
    </g>
</svg>