<svg width="16" height="16" viewBox="0 0 16 16" fill="none" xmlns="http://www.w3.org/2000/svg">
<path d="M6.66667 14H9.33333C9.70152 14 10 13.7015 10 13.3333V10H13.3333C13.7015 10 14 9.70152 14 9.33333V6.66667C14 6.29848 13.7015 6 13.3333 6L10 6V2.66667C10 2.29848 9.70152 2 9.33333 2H6.66667C6.29848 2 6 2.29848 6 2.66667L6 6L2.66667 6C2.29848 6 2 6.29848 2 6.66667V9.33333C2 9.70152 2.29848 10 2.66667 10L6 10L6 13.3333C6 13.7015 6.29848 14 6.66667 14Z" stroke="#666666" stroke-linecap="round" stroke-linejoin="round"/>
</svg>
