<?xml version="1.0" encoding="UTF-8"?>
<svg width="29px" height="26px" viewBox="0 0 29 26" version="1.1" xmlns="http://www.w3.org/2000/svg" xmlns:xlink="http://www.w3.org/1999/xlink">
    <!-- Generator: Sketch 49.3 (51167) - http://www.bohemiancoding.com/sketch -->
    <title>Artboard 2 Copy</title>
    <desc>Created with Sketch.</desc>
    <defs></defs>
    <g id="Artboard-2-Copy" stroke="none" stroke-width="1" fill="none" fill-rule="evenodd">
        <g id="noun_1614610_cc" transform="translate(7.000000, 0.000000)" fill="#000000" fill-rule="nonzero">
            <g id="Group">
                <path d="M8.50000708,0.128995616 C5.56913271,0.128995616 3.18750673,2.52405507 3.18750673,5.47146137 L3.18750673,13.3070849 C3.18750673,16.2544877 5.56913271,18.6495507 8.50000708,18.6495507 C11.4308815,18.6495507 13.8125071,16.2544877 13.8125071,13.3070849 L13.8125071,5.47146137 C13.8125071,2.52405507 11.4308815,0.128995616 8.50000708,0.128995616 Z M8.50000708,1.55365315 C10.6705494,1.55365315 12.3958404,3.28867589 12.3958404,5.47146137 L12.3958404,13.3070849 C12.3958404,15.489874 10.6705494,17.2248932 8.50000708,17.2248932 C6.32946479,17.2248932 4.60417375,15.489874 4.60417375,13.3070849 L4.60417375,5.47146137 C4.60417375,3.28867589 6.32946479,1.55365315 8.50000708,1.55365315 Z M0.719407771,9.03311233 C0.341143604,9.02716438 -0.00591139583,9.37617342 6.72916667e-06,9.75657123 L6.72916667e-06,13.3181973 C6.72916667e-06,17.8029836 3.42477715,21.4731151 7.79167375,21.8327699 L7.79167375,24.3481808 L4.95834042,24.3481808 C4.56713854,24.3481808 4.25000708,24.6670904 4.25000708,25.0605096 C4.25000708,25.4539288 4.56713854,25.7728384 4.95834042,25.7728384 L12.0416737,25.7728384 C12.4328756,25.7728384 12.7500071,25.4539288 12.7500071,25.0605096 C12.7500071,24.6670904 12.4328756,24.3489644 12.0416737,24.3481808 L9.20834042,24.3481808 L9.20834042,21.8327699 C13.5752367,21.4731151 17.0000071,17.8029836 17.0000071,13.3181973 L17.0000071,9.75657123 C17.0052842,9.38024082 16.6659323,9.0340989 16.2916737,9.0340989 C15.9174152,9.0340989 15.5780492,9.38024082 15.5833404,9.75657123 L15.5833404,13.3181973 C15.5833404,17.2768219 12.4364244,20.4414849 8.50000708,20.4414849 C4.56358625,20.4414849 1.4166734,17.2768219 1.4166734,13.3181973 L1.4166734,9.75657123 C1.42248173,9.38359589 1.0902911,9.03893205 0.719407771,9.03311233 Z" id="Shape"></path>
            </g>
        </g>
    </g>
</svg>