<?xml version="1.0" encoding="UTF-8"?>
<svg width="29px" height="26px" viewBox="0 0 29 26" version="1.1" xmlns="http://www.w3.org/2000/svg" xmlns:xlink="http://www.w3.org/1999/xlink">
    <!-- Generator: Sketch 49.3 (51167) - http://www.bohemiancoding.com/sketch -->
    <title>Artboard 2</title>
    <desc>Created with Sketch.</desc>
    <defs></defs>
    <g id="Artboard-2" stroke="none" stroke-width="1" fill="none" fill-rule="evenodd">
        <g id="Group" transform="translate(1.000000, 1.000000)" fill="#000000" fill-rule="nonzero">
            <path d="M3.06293706,18.6991304 L6.54545455,18.6991304 C6.88111888,18.6991304 7.21678322,18.6573913 7.51048951,18.5321739 C7.84615385,19.0330435 8.30769231,19.4504348 8.76923077,19.7426087 L14.8111888,23.5826087 C15.2727273,23.8747826 15.6923077,24 16.1538462,24 C17.034965,24 18,23.3321739 18,21.8295652 L18,2.17043478 C18,0.667826087 17.034965,0 16.1538462,0 C15.7342657,0 15.2727273,0.125217391 14.8111888,0.417391304 L8.76923077,4.2573913 C8.30769231,4.54956522 7.88811189,4.96695652 7.51048951,5.46782609 C7.21678322,5.38434783 6.88111888,5.30086957 6.54545455,5.30086957 L3.06293706,5.30086957 C1.38461538,5.30086957 0,6.67826087 0,8.34782609 L0,15.5686957 C7.45324548e-16,17.3217391 1.38461538,18.6991304 3.06293706,18.6991304 Z M9.65034965,5.71826087 L15.6923077,1.87826087 C15.9440559,1.71130435 16.0699301,1.71130435 16.1118881,1.71130435 C16.2377622,1.71130435 16.2797203,2.00347826 16.2797203,2.21217391 L16.2797203,21.8713043 C16.2797203,22.08 16.2377622,22.3721739 16.1118881,22.3721739 C16.0699301,22.3721739 15.9020979,22.3721739 15.6923077,22.2052174 L9.65034965,18.3652174 C9.23076923,18.1147826 8.85314685,17.6556522 8.6013986,17.1130435 C8.6013986,17.1130435 8.6013986,17.1130435 8.6013986,17.1130435 C8.34965035,16.6121739 8.18181818,16.1113043 8.18181818,15.6521739 L8.18181818,8.43130435 C8.18181818,7.97217391 8.34965035,7.42956522 8.6013986,6.97043478 C8.6013986,6.97043478 8.6013986,6.97043478 8.6013986,6.97043478 C8.85314685,6.42782609 9.23076923,5.96869565 9.65034965,5.71826087 Z M1.67832168,8.43130435 C1.67832168,7.68 2.30769231,7.05391304 3.06293706,7.05391304 L6.54545455,7.05391304 C6.62937063,7.05391304 6.67132867,7.05391304 6.75524476,7.05391304 C6.58741259,7.51304348 6.5034965,7.97217391 6.5034965,8.43130435 L6.5034965,15.6521739 C6.5034965,16.1113043 6.58741259,16.5704348 6.75524476,17.0295652 C6.67132867,17.0295652 6.62937063,17.0295652 6.54545455,17.0295652 L3.06293706,17.0295652 C2.30769231,17.0295652 1.67832168,16.4034783 1.67832168,15.6521739 L1.67832168,8.43130435 Z" id="Shape"></path>
            <path d="M22.2195122,15.7540984 C22.3658537,15.9180328 22.5487805,16 22.7317073,16 C22.9146341,16 23.097561,15.9180328 23.2439024,15.7540984 C25.5853659,13.1311475 25.5853659,8.86885246 23.2439024,6.24590164 C22.9512195,5.91803279 22.5121951,5.91803279 22.2195122,6.24590164 C21.9268293,6.57377049 21.9268293,7.06557377 22.2195122,7.39344262 C23.9756098,9.36065574 23.9756098,12.5983607 22.2195122,14.5655738 C21.9268293,14.8934426 21.9268293,15.4262295 22.2195122,15.7540984 Z" id="Shape"></path>
            <path d="M23.2464066,18.5995423 C22.9178645,18.9290618 22.9178645,19.423341 23.2464066,19.7528604 C23.4106776,19.9176201 23.6160164,20 23.8213552,20 C24.026694,20 24.2320329,19.9176201 24.3963039,19.7528604 C29.201232,14.9336384 29.201232,7.06636156 24.3963039,2.24713959 C24.0677618,1.91762014 23.5749487,1.91762014 23.2464066,2.24713959 C22.9178645,2.57665904 22.9178645,3.07093822 23.2464066,3.40045767 C27.4353183,7.60183066 27.4353183,14.4393593 23.2464066,18.5995423 Z" id="Shape"></path>
        </g>
    </g>
</svg>